<svg xmlns="http://www.w3.org/2000/svg" viewBox="0 0 960 540" role="img" aria-labelledby="title desc">
  <title id="title">Computer vision waste detection frame</title>
  <desc id="desc">A stylized camera frame showing waste objects detected with clean bounding boxes and confidence signals.</desc>
  <defs>
    <linearGradient id="screen" x1="0" y1="0" x2="1" y2="1">
      <stop offset="0" stop-color="#20282d"/>
      <stop offset="1" stop-color="#101417"/>
    </linearGradient>
  </defs>
  <rect width="960" height="540" rx="24" fill="#101417"/>
  <rect x="76" y="58" width="808" height="424" rx="20" fill="url(#screen)" stroke="#344148" stroke-width="3"/>
  <rect x="110" y="94" width="548" height="352" rx="14" fill="#050708" stroke="#344148"/>
  <g opacity=".3" stroke="#344148">
    <path d="M110 182 h548 M110 270 h548 M110 358 h548"/>
    <path d="M247 94 v352 M384 94 v352 M521 94 v352"/>
  </g>
  <g transform="translate(198 172)">
    <path d="M12 118 C32 30 110 12 146 62 C170 96 150 154 78 166 C40 172 5 154 12 118 Z" fill="#76c7f2" opacity=".72"/>
    <rect x="-8" y="22" width="178" height="162" fill="none" stroke="#76c7f2" stroke-width="4"/>
    <rect x="-8" y="-9" width="108" height="28" rx="6" fill="#143142" stroke="#76c7f2"/>
    <circle cx="12" cy="5" r="5" fill="#76c7f2"/>
    <rect x="28" y="1" width="52" height="8" rx="4" fill="#d7f2ff"/>
  </g>
  <g transform="translate(430 204)">
    <rect x="16" y="28" width="86" height="128" rx="18" fill="#5ee0a0" opacity=".76"/>
    <path d="M30 28 h58 l10 -28 h-78 Z" fill="#5ee0a0" opacity=".6"/>
    <rect x="-6" y="0" width="130" height="176" fill="none" stroke="#5ee0a0" stroke-width="4"/>
    <rect x="-6" y="-31" width="98" height="28" rx="6" fill="#123c2a" stroke="#5ee0a0"/>
    <circle cx="14" cy="-17" r="5" fill="#5ee0a0"/>
    <rect x="30" y="-21" width="44" height="8" rx="4" fill="#eef3f5"/>
  </g>
  <g transform="translate(312 318)">
    <path d="M0 82 L104 16 L188 74 L88 132 Z" fill="#ffc857" opacity=".7"/>
    <rect x="-18" y="-4" width="224" height="154" fill="none" stroke="#ffc857" stroke-width="4"/>
  </g>
  <g transform="translate(696 104)">
    <rect width="136" height="342" rx="14" fill="#171d21" stroke="#344148"/>
    <rect x="18" y="22" width="64" height="10" rx="5" fill="#76c7f2"/>
    <rect x="18" y="54" width="100" height="8" rx="4" fill="#344148"/>
    <rect x="18" y="76" width="76" height="8" rx="4" fill="#344148"/>
    <rect x="18" y="118" width="100" height="62" rx="10" fill="#143142" stroke="#76c7f2"/>
    <rect x="34" y="136" width="68" height="8" rx="4" fill="#d7f2ff"/>
    <rect x="34" y="156" width="44" height="8" rx="4" fill="#76c7f2"/>
    <rect x="18" y="202" width="100" height="62" rx="10" fill="#123c2a" stroke="#5ee0a0"/>
    <rect x="34" y="220" width="58" height="8" rx="4" fill="#eef3f5"/>
    <rect x="34" y="240" width="36" height="8" rx="4" fill="#5ee0a0"/>
    <rect x="18" y="286" width="100" height="34" rx="8" fill="#3b2f16" stroke="#ffc857"/>
  </g>
</svg>
