<svg xmlns="http://www.w3.org/2000/svg" viewBox="0 0 960 540" role="img" aria-labelledby="title desc">
  <title id="title">Eco-island connected waste infrastructure</title>
  <desc id="desc">A clean network diagram of smart waste stations connected to a dashboard and sustainability infrastructure.</desc>
  <defs>
    <linearGradient id="water" x1="0" y1="0" x2="1" y2="1">
      <stop offset="0" stop-color="#143142"/>
      <stop offset="1" stop-color="#101417"/>
    </linearGradient>
  </defs>
  <rect width="960" height="540" rx="24" fill="#101417"/>
  <path d="M0 0 h960 v540 h-960 Z" fill="url(#water)"/>
  <g opacity=".22" stroke="#76c7f2" fill="none">
    <path d="M48 108 C160 78 230 146 344 108 S558 74 700 116 S858 154 940 104"/>
    <path d="M20 438 C148 392 274 460 394 418 S628 390 766 428 S888 458 956 414"/>
  </g>
  <path d="M220 402 C168 362 172 280 236 238 C286 204 338 214 378 174 C430 122 526 122 586 174 C628 210 678 210 720 250 C780 306 760 386 694 420 C588 474 332 470 220 402 Z" fill="#171d21" stroke="#344148" stroke-width="3"/>
  <g stroke="#76c7f2" stroke-width="3" stroke-dasharray="9 10" fill="none">
    <path d="M318 318 C380 270 430 254 480 254"/>
    <path d="M642 320 C596 274 540 254 480 254"/>
    <path d="M480 254 C492 202 536 174 600 152"/>
  </g>
  <g transform="translate(268 292)">
    <rect x="-44" y="-54" width="88" height="108" rx="12" fill="#20282d" stroke="#344148"/>
    <rect x="-30" y="-38" width="60" height="18" rx="9" fill="#143142" stroke="#76c7f2"/>
    <path d="M-25 54 h50 l-8 34 h-34 Z" fill="#20282d" stroke="#344148"/>
    <circle cx="0" cy="0" r="44" fill="none" stroke="#5ee0a0" opacity=".65"/>
  </g>
  <g transform="translate(642 304)">
    <rect x="-44" y="-54" width="88" height="108" rx="12" fill="#20282d" stroke="#344148"/>
    <rect x="-30" y="-38" width="60" height="18" rx="9" fill="#143142" stroke="#76c7f2"/>
    <path d="M-25 54 h50 l-8 34 h-34 Z" fill="#20282d" stroke="#344148"/>
    <circle cx="0" cy="0" r="44" fill="none" stroke="#ffc857" opacity=".65"/>
  </g>
  <g transform="translate(480 224)">
    <rect x="-76" y="-48" width="152" height="96" rx="14" fill="#171d21" stroke="#76c7f2"/>
    <rect x="-52" y="-22" width="104" height="10" rx="5" fill="#d7f2ff"/>
    <rect x="-52" y="2" width="70" height="10" rx="5" fill="#5ee0a0"/>
    <rect x="30" y="2" width="22" height="10" rx="5" fill="#ffc857"/>
  </g>
  <g transform="translate(600 122)">
    <rect x="-78" y="-44" width="156" height="88" rx="14" fill="#20282d" stroke="#344148"/>
    <rect x="-54" y="-20" width="82" height="8" rx="4" fill="#76c7f2"/>
    <rect x="-54" y="4" width="108" height="8" rx="4" fill="#344148"/>
    <rect x="-54" y="24" width="70" height="8" rx="4" fill="#344148"/>
  </g>
  <g fill="#5ee0a0">
    <circle cx="350" cy="160" r="9"/>
    <circle cx="710" cy="220" r="7"/>
    <circle cx="394" cy="394" r="7"/>
    <circle cx="564" cy="398" r="8"/>
  </g>
</svg>
